<svg xmlns="http://www.w3.org/2000/svg" viewBox="0 0 24 24"><defs><style>.cls-1{fill:none;}</style></defs><g id="Layer_2" data-name="Layer 2"><g id="Layer_2-2" data-name="Layer 2"><rect class="cls-1" width="24" height="24"/><path fill="inherit" d="M18.13,9V13.4a.38.38,0,0,1-.38.38H11.86v4.84h4.52V19H11.86v4.75a.25.25,0,0,1-.25.25.25.25,0,0,1-.25-.25V16.31H6.84v-.38h4.52v-3h-4A.38.38,0,0,1,7,12.5V10.71l.38.38v1.22a.2.2,0,0,0,.19.19h3.82V9.31H6.25a.38.38,0,0,1-.38-.38V5.24h.38v3.5a.2.2,0,0,0,.19.19h4.92V7.67H8.71a.38.38,0,0,1-.38-.37V5.24h.38V7.1a.19.19,0,0,0,.19.2h2.46v-7A.25.25,0,0,1,11.61,0a.25.25,0,0,1,.25.25V5.83h4a.19.19,0,0,0,.19-.2V2.68h.38V5.83A.38.38,0,0,1,16,6.2H11.86v7.2h5.7a.19.19,0,0,0,.19-.19V9.35Z"/></g></g></svg>