<?xml version="1.0" encoding="utf-8"?>
<!-- Svg Vector Icons : http://www.onlinewebfonts.com/icon -->
<!DOCTYPE svg PUBLIC "-//W3C//DTD SVG 1.1//EN" "http://www.w3.org/Graphics/SVG/1.1/DTD/svg11.dtd">
<svg version="1.1" xmlns="http://www.w3.org/2000/svg" xmlns:xlink="http://www.w3.org/1999/xlink" x="0px" y="0px" viewBox="0 0 1000 1000" enable-background="new 0 0 1000 1000" xml:space="preserve">
<metadata> Svg Vector Icons : http://www.onlinewebfonts.com/icon </metadata>
<g><path d="M894.7,10H105.3C52.7,10,10,52.7,10,105.3v789.4c0,52.6,42.7,95.3,95.3,95.3h789.4c52.6,0,95.3-42.7,95.3-95.3V105.3C990,52.7,947.3,10,894.7,10z M777,598.4v72.7c-1.4,14.4-12.6,25.7-26.9,27.5l-410.3,0c-30.4,0-56.3-9.8-77.7-29.4c-21.4-19.6-32.1-43.2-32.1-71.1c0-22.1,7.2-41.8,21.7-59.1c14.5-17.3,32.8-29.3,55-36.2l358.5-102.5H230.1v-69.4c0.2-14.6,10.5-26.6,24.2-29.6h412.9c30.4,0,56.3,9.7,77.7,29.1c21.4,19.4,32.1,42.6,32.1,69.6c0,22.5-7.3,42.3-21.9,59.5c-14.6,17.2-33.3,29.1-56.3,35.9l-359,102.9H777z"/></g>
</svg>