<?xml version="1.0" encoding="utf-8"?><!DOCTYPE svg PUBLIC "-//W3C//DTD SVG 1.1//EN" "http://www.w3.org/Graphics/SVG/1.1/DTD/svg11.dtd"><svg xmlns="http://www.w3.org/2000/svg" xmlns:xlink="http://www.w3.org/1999/xlink"><symbol viewBox="0 0 448 512" id="book-solid" xmlns="http://www.w3.org/2000/svg"><!--! Font Awesome Pro 6.3.0 by @fontawesome - https://fontawesome.com License - https://fontawesome.com/license (Commercial License) Copyright 2023 Fonticons, Inc.--><path d="M96 0C43 0 0 43 0 96v320c0 53 43 96 96 96h320c17.7 0 32-14.3 32-32s-14.3-32-32-32v-64c17.7 0 32-14.3 32-32V32c0-17.7-14.3-32-32-32H96zm0 384h256v64H96c-17.7 0-32-14.3-32-32s14.3-32 32-32zm32-240c0-8.8 7.2-16 16-16h192c8.8 0 16 7.2 16 16s-7.2 16-16 16H144c-8.8 0-16-7.2-16-16zm16 48h192c8.8 0 16 7.2 16 16s-7.2 16-16 16H144c-8.8 0-16-7.2-16-16s7.2-16 16-16z"/></symbol><symbol viewBox="0 0 576 512" id="bootstrap" xmlns="http://www.w3.org/2000/svg"><!--! Font Awesome Pro 6.3.0 by @fontawesome - https://fontawesome.com License - https://fontawesome.com/license (Commercial License) Copyright 2023 Fonticons, Inc.--><path d="M333.5 201.4c0-22.1-15.6-34.3-43-34.3h-50.4v71.2h42.5c32.8-.1 50.9-13.3 50.9-36.9zM517 188.6c-9.5-30.9-10.9-68.8-9.8-98.1C508.3 60 484.5 32 452.5 32H123.7C91.6 32 67.9 60.1 69 90.5c1 29.3-.3 67.2-9.8 98.1-9.6 31-25.7 50.6-52.2 53.1v28.5c26.4 2.5 42.6 22.1 52.2 53.1 9.5 30.9 10.9 68.8 9.8 98.1-1.1 30.5 22.7 58.5 54.7 58.5h328.7c32.1 0 55.8-28.1 54.7-58.5-1-29.3.3-67.2 9.8-98.1 9.6-31 25.7-50.6 52.1-53.1v-28.5c-26.3-2.5-42.5-22.1-52-53.1zM300.2 375.1h-97.9V136.8h97.4c43.3 0 71.7 23.4 71.7 59.4 0 25.3-19.1 47.9-43.5 51.8v1.3c33.2 3.6 55.5 26.6 55.5 58.3 0 42.1-31.3 67.5-83.2 67.5zm-10-108.7h-50.1v78.4h52.3c34.2 0 52.3-13.7 52.3-39.5 0-25.7-18.6-38.9-54.5-38.9z"/></symbol><symbol viewBox="0 0 512 512" id="briefcase-solid" xmlns="http://www.w3.org/2000/svg"><!--! Font Awesome Pro 6.3.0 by @fontawesome - https://fontawesome.com License - https://fontawesome.com/license (Commercial License) Copyright 2023 Fonticons, Inc.--><path d="M184 48h144c4.4 0 8 3.6 8 8v40H176V56c0-4.4 3.6-8 8-8zm-56 8v40H64c-35.3 0-64 28.7-64 64v96h512v-96c0-35.3-28.7-64-64-64h-64V56c0-30.9-25.1-56-56-56H184c-30.9 0-56 25.1-56 56zm384 232H320v32c0 17.7-14.3 32-32 32h-64c-17.7 0-32-14.3-32-32v-32H0v128c0 35.3 28.7 64 64 64h384c35.3 0 64-28.7 64-64V288z"/></symbol><symbol preserveAspectRatio="xMidYMid" viewBox="0 0 256 216" id="browserify" xmlns="http://www.w3.org/2000/svg"><path d="M110.582.009c-4.427.082-9.967 2.843-13.93 1.89-1.581-.382-3.514-.546-5.406-.443-.034.002-.068-.002-.101 0-1.924.114-3.802.52-5.186 1.367-.057.035-.123.067-.18.1a1.53 1.53 0 0 1-.182.221c-1.839 1.84-5.906 2.007-7.799 3.9-1.545 1.546-2.978 4.505-4.683 7.156-.016.025-.024.055-.04.08-6.068 7.075-10.91 15.78-12.623 22.895-1.408 5.845-1.388 13.74-3.699 19.557-.646 1.627-3.325 10.631-1.246 12.382 1.416 1.193 7.453 2.106 9.226 0 .954-1.133 9.705-3.966 12.442-7.216 3.223-3.827 4.886-10.438 7.096-16 .351-.885.804-1.824 1.326-2.754 1.254 2.428 2.249 4.41 2.774 5.629 1.094 2.535 2.297 6.041 3.297 9.788-2.166 3.318-1.263 7.856.301 9.93-6.331 1.971-3.315 8.783-3.558 9.025-.417.417-1.737.974-2.271 1.508-.66.66-.764 2.038-.764 3.035 0 .962.122 1.817.302 2.573-5.761 14.492-11.199 32.632-18.07 42.412-1.979.902-4.002 1.677-6.373 2.15-4.619 1.156-16.294 3.444-26.13 6.754a16.077 16.077 0 0 1-1.488 1.689c-.974.974-2.924.975-3.9 1.95-.757.758-3.12-.095-3.878.663-2.25 2.25-5.57 3.418-9.106 5.186-.392.196-1.65-.3-1.95 0-1.606 1.606-4.482 2.533-5.849 3.9-2.674 2.673-4.915 5.578-7.799 8.462-2.866 2.866 2.98 10.758 3.9 11.678 2.708 2.708 7.683 3.14 10.391 5.85 1.14 1.139 4.96-.385 6.332.522.354.05.671.114.885.221 3.99 1.995 11.818 3.47 16.542 5.045 6.511 2.17 11.676 7.97 18.392 9.648 5.113 1.279 10.92 1.959 16.08 3.679 2.158.719 4.778.226 6.875.924 3.921 1.308 7.462 2.93 11.035 4.121 1.238.413 2.873-.317 4.14 0 2.854.713 5.938.92 8.724 1.85 4.962 1.653 11.581-1.655 16.543 0 3.27 1.09 23.63-.655 25.267-2.292 1.203-1.204 5.78.325 7.356-.462 1.368-.684 5.52-.013 6.432-.925 2.355-2.355 7.189-2.458 10.553-4.14 1.416-.708 3.597.271 5.066-.463.844-.422 2.56.097 4.422.904 3.542-.074 6.268-.442 9.809-.442 4.21 0 10.022-1.999 16.18-5.025 6.817-1.535 15.148-3.308 15.538-3.698 2.962-2.962 10.833-2.11 13.77-5.046 2.08-2.08 4.752-2.924 6.894-5.065 1.907-1.908 4.528-4.092 7.276-6.392.479-1.334 1.703-2.588 2.834-3.718.474-.475 3.821-10.268 3.216-11.478-1.107-2.215-2.937-4.047-5.045-5.749-.654-.224-1.155-.452-1.387-.683-2.252-2.252-7.647-2.602-9.648-4.603-3.223-3.223-8.069-6.12-13.85-8.06-1.21-.6-2.343-1.239-3.155-2.05-1.03-1.03-6.98-2.345-8.724-3.217-.938-.469-2.978.258-3.678-.442-1.698-1.697-8.811-2.907-13.95-4.543-.75.048-1.952-.524-2.17-.743-.155-.155-4.139-.741-5.448-2.05-.149-.15-.683-5.486-.683-6.151 0-.246-.596-1.234-.242-1.588.055-.055.11-.12.161-.181-2.378-14.656-4.197-30.84-5.91-32.282-2.543-2.141-3.956-13.965-6.753-16.321-2.925-2.463-4.756-5.156-7.015-7.256-.002-.007.001-.014 0-.02-.85-4.673-2.465-9.923-2.975-10.352-.83-.698.427-3.865-.402-4.563-2.58-2.173-5.942-14.947-8.362-16.985-3.17-2.67-4.729-6.812-7.739-9.347-7.437-6.262-19.79-15.582-33.447-14.874a17.501 17.501 0 0 1-1.708-.583c-.869-.345-1.853-.461-2.875-.442Z" fill="#3C6991"/><path d="M107.634 81.112c-1.147-.206-2.269-.218-3.149.074-1.465.486-3.827-.666-5.357-.39-5.785 1.045-10.32 2.612-11.1 4.556 8.585-2.461 18.116 3.033 22.02 8.253 1.624 2.17-.88 5.459.004 8.12.2.604.36 4.463-.335 4.983-1.453 1.086-1.309 4.878-2.51 6.609-2.827 4.072-5.293 7.048-7.695 10.508-2.476 3.568-9.099 4.282-12.795 5.51-.816.27-1.845-.293-2.705-.008-.204.068-.441.08-.678.046.083.094.18.184.248.276.312.416 1.832.02 2.276.328 2.872 1.994 14.237 1.229 17.388.183 1.96-.65 3.78-1.612 5.74-2.263 2.514-.834 4.989-4.744 6.795-6.757 6.21-6.924 9.049-18.916 5.977-28.17-1.544-4.652-5.586-7.44-9.027-9.83-1.176-.816-3.185-1.683-5.097-2.028ZM121.486 72.175c-.37-.012-.421 3.609-.45 5.335-.174.01-.166.227-.12.474-1.866.829-5.93 2.489-5.618 2.821.015.008.016.018.023.024-.147.007-.301.057-.308.26-.014.269.538.015.806.024.433.015 4.212 1.408 5.714 2.04.186 1.427.735 2.28.735 3.911 0 1.017.2 2.418.26 2.418.023 0 .064-.03.095-.047.044.176.094.28.166.213.295-.276.83-1.017 1.375-1.849.024-.036.049-.059.07-.095.959-1.186 2.053-2.705 2.988-4.078 1.813.264 3.473.475 3.888.475.2 0 7.087 1.183 5.098-.807-.121-.121-.262-.224-.403-.332.044-.035.069-.07.07-.118.015-.384-3.83-2.152-4.457-2.821-.303-.324-.74-.53-1.043-.854-.08-.085.07-.322.308-.664v-.023c.535-.59 1.105-1.2 1.517-1.613.198-.197 1.31-2.28.255-2.142-.712.092-3.039.24-6.086 1.132 0 0-.822-1.076-.828-1.073-.662-.27-2.536-2.56-4.057-2.611h.002ZM104.28 71.638c-.219.106-.552.537-.658.317-.106-.219.878-.423.659-.317-.655.316-3.187 2.597-2.254 3.318.767.593 3.614-.516 4.822-.094.18.063 2.187 3.141 2.501 2.242.513-1.467-.122-3.96-.106-4.006.237-.676 2.09-.399 2.542-.617.374-.18 1.133-.5 1.237-.8.028-.08.049-.32.086-.243.03.063-.495-.447-1.135-.67-.956-.334-1.924-.125-2.61-.365-.315-.11.066-1.969-.05-2.207-.376-.78-.615-1.697-.549-1.56.187.388-.81.38-1.072.72-.328.424-1.188 1.862-1.743 1.855-.666-.01-3.333-.645-3.512-.133-.015.03 1.662 1.689 1.843 2.56ZM130.06 97.512c-.178-.166-.7-.319-.535-.497.166-.179.714.663.536.497-.533-.494-3.58-2.02-3.911-.89-.273.932 1.798 3.178 1.845 4.457.015.191-2.128 3.182-1.176 3.146 1.553-.057 3.644-1.557 3.691-1.558.717-.027 1.133 1.8 1.502 2.142.304.282.878.872 1.195.86.087-.003.317-.072.258-.01-.047.051.236-.623.21-1.3-.037-1.013-.584-1.838-.611-2.563-.015-.335 1.857-.658 2.037-.852.59-.635 1.355-1.191 1.252-1.08-.293.315-.648-.616-1.061-.737-.515-.15-2.167-.426-2.362-.946-.234-.624-.615-3.339-1.157-3.319-.031.001-.967 2.164-1.712 2.65Z" fill="#E6B35A"/><path d="M188.693 121.556c-.52 1.787-3.775 7.514-5.146 8.885-1.763 1.763-3.279 3.6-4.824 5.146-1.095 1.095-4.221 3.899-5.146 4.824-2.01 2.01-3.189 1.259-5.467 3.537-1.13 1.13-3.403 1.152-4.503 2.252-.994.994-8.975 1.593-10.934 2.573-.475.237-1.891-.361-2.252 0-1.408 1.407-12.533 1.92-12.864 2.25-1.703 1.704-6.238-.257-8.683.966-2.169 1.084-6.473.321-9.005.321-1.403 0-5.128-.026-8.965-.12-.906-.129-1.62-.23-1.648-.201-.02.019-.107.108-.161.16-.72-.022-1.415-.052-2.11-.08-.434-.165-.894-.267-1.267-.08-.017.008-.042.011-.06.02-2.994-.145-5.438-.357-6.05-.664-2.517-1.258-5.22-1.608-8.362-1.608-4.919 0-15.81-5.814-19.619-7.718-.583-.292-2.2-1.988-3.075-2.453-.007-.336-.019-.642-.14-.763-.897-.897-1.29-2.9-1.93-4.181-.267-.534 0-2.49 0-2.252 0 .011.646-2.572.643-2.572-.551 0-3.433 3.755-4.503 4.824-.01.01.02.068.04.12-.602.83-1.024 2.07-1.024 3.94 0 6.374 3.515 6.712 6.814 10.01.81.81 2.543.272 3.175.905.646.645 1.594 1.219 2.714 1.728-1.4.822-4.1 1.025-4.985 1.91-.865.865-4.877 3.353-6.372 4.1-.28.14-1.64.294-1.809.463-8.496 8.496-18.084 13.983-25.93 21.829-.66.66-.904 9.287-.904 10.914 0 2.842-.965 5.85.905 7.719.788.789 3.404.228 4.1.925.151.15 2.053 1.565 2.271 1.346.83-.83-.462-5.169-.462-6.351 0-6.211.67-12.49 4.563-16.382 7.506-7.506 18.208-10.932 25.005-17.729 1.998-1.998 5.659-3.062 8.322-5.246-.094.64.015 1.244.482 1.748.31.336 1.416-.328 1.809-.12 2.67 1.416 10.81 4.452 13.206 1.528.435.826.779 1.663 1.206 2.09 1.596 1.595.348 9.294-.462 10.915-3.057 6.113-4.669 23.764-7.277 26.371-.45.45.54 4.739.905 5.468.947 1.895-.694 6.12 0 6.814.682.682.242 2.493.925 3.176.62.62 3.459-.16 4.08.462.246.246 3.482 2.448 4.1 1.83.513-.514-1.403-6.426-1.829-7.277-.366-.734.988-14.194 1.367-14.573.53-.53-.53-2.645 0-3.176 1.033-1.033 2.271-22.443 2.271-25.467 0-.51 1.305-3.7.463-4.543-.005-.005-.754-1.725-1.769-3.397 1.5.111 2.764.292 3.136.663.667.668 14.124 0 16.361 0 8.886 0 22.865-.688 28.201-1.829 2.128-.455 7.173-.852 10.01-2.271 1.648-.824 7.449-1.387 8.463-1.648 2.166-.559 9.128-2.234 11.075-4.181 1.444-1.445 6.383-6.448 8.201-7.357 2.05-1.025 3.08-4.666 4.282-6.352.154-1.248 3.513-4.51 2.854-5.829-.749-3.046-1.216-6.194-2.412-6.312Z" fill="#E6B35A"/></symbol><symbol viewBox="0 0 512 512" id="camera-solid" xmlns="http://www.w3.org/2000/svg"><!--! Font Awesome Pro 6.3.0 by @fontawesome - https://fontawesome.com License - https://fontawesome.com/license (Commercial License) Copyright 2023 Fonticons, Inc.--><path d="M149.1 64.8 138.7 96H64c-35.3 0-64 28.7-64 64v256c0 35.3 28.7 64 64 64h384c35.3 0 64-28.7 64-64V160c0-35.3-28.7-64-64-64h-74.7l-10.4-31.2C356.4 45.2 338.1 32 317.4 32H194.6c-20.7 0-39 13.2-45.5 32.8zM256 192a96 96 0 1 1 0 192 96 96 0 1 1 0-192z"/></symbol><symbol viewBox="0 0 640 512" id="code-solid" xmlns="http://www.w3.org/2000/svg"><!--! Font Awesome Pro 6.3.0 by @fontawesome - https://fontawesome.com License - https://fontawesome.com/license (Commercial License) Copyright 2023 Fonticons, Inc.--><path d="M392.8 1.2c-17-4.9-34.7 5-39.6 22l-128 448c-4.9 17 5 34.7 22 39.6s34.7-5 39.6-22l128-448c4.9-17-5-34.7-22-39.6zm80.6 120.1c-12.5 12.5-12.5 32.8 0 45.3l89.3 89.4-89.4 89.4c-12.5 12.5-12.5 32.8 0 45.3s32.8 12.5 45.3 0l112-112c12.5-12.5 12.5-32.8 0-45.3l-112-112c-12.5-12.5-32.8-12.5-45.3 0zm-306.7 0c-12.5-12.5-32.8-12.5-45.3 0l-112 112c-12.5 12.5-12.5 32.8 0 45.3l112 112c12.5 12.5 32.8 12.5 45.3 0s12.5-32.8 0-45.3L77.3 256l89.4-89.4c12.5-12.5 12.5-32.8 0-45.3z"/></symbol><symbol viewBox="0 0 384 512" id="css3" xmlns="http://www.w3.org/2000/svg"><!--! Font Awesome Pro 6.3.0 by @fontawesome - https://fontawesome.com License - https://fontawesome.com/license (Commercial License) Copyright 2023 Fonticons, Inc.--><path d="m0 32 34.9 395.8L192 480l157.1-52.2L384 32H0zm313.1 80-4.8 47.3L193 208.6l-.3.1h111.5l-12.8 146.6-98.2 28.7-98.8-29.2-6.4-73.9h48.9l3.2 38.3 52.6 13.3 54.7-15.4 3.7-61.6-166.3-.5v-.1l-.2.1-3.6-46.3L193.1 162l6.5-2.7H76.7L70.9 112h242.2z"/></symbol><symbol viewBox="0 0 640 512" id="dumbbell-solid" xmlns="http://www.w3.org/2000/svg"><!--! Font Awesome Pro 6.3.0 by @fontawesome - https://fontawesome.com License - https://fontawesome.com/license (Commercial License) Copyright 2023 Fonticons, Inc.--><path d="M112 96c0-17.7 14.3-32 32-32h16c17.7 0 32 14.3 32 32v320c0 17.7-14.3 32-32 32h-16c-17.7 0-32-14.3-32-32v-32H64c-17.7 0-32-14.3-32-32v-64c-17.7 0-32-14.3-32-32s14.3-32 32-32v-64c0-17.7 14.3-32 32-32h48V96zm416 0v32h48c17.7 0 32 14.3 32 32v64c17.7 0 32 14.3 32 32s-14.3 32-32 32v64c0 17.7-14.3 32-32 32h-48v32c0 17.7-14.3 32-32 32h-16c-17.7 0-32-14.3-32-32V96c0-17.7 14.3-32 32-32h16c17.7 0 32 14.3 32 32zM416 224v64H224v-64h192z"/></symbol><symbol viewBox="0 0 512 512" id="earth-europe-solid" xmlns="http://www.w3.org/2000/svg"><!--! Font Awesome Pro 6.3.0 by @fontawesome - https://fontawesome.com License - https://fontawesome.com/license (Commercial License) Copyright 2023 Fonticons, Inc.--><path d="m266.3 48.3-33.8 25.3c-5.4 4-8.5 10.4-8.5 17.1v9.1c0 6.8 5.5 12.3 12.3 12.3 2.4 0 4.8-.7 6.8-2.1l41.8-27.9c2-1.3 4.4-2.1 6.8-2.1h1c6.2 0 11.3 5.1 11.3 11.3 0 3-1.2 5.9-3.3 8l-19.9 19.9a53.03 53.03 0 0 1-20.7 12.8l-26.5 8.8c-5.8 1.9-9.6 7.3-9.6 13.4 0 3.7-1.5 7.3-4.1 10L202 182.1c-6.4 6.4-9.9 15-9.9 24v4.3c0 16.4 13.6 29.7 29.9 29.7 11 0 21.2-6.2 26.1-16l4-8.1c2.4-4.8 7.4-7.9 12.8-7.9 4.5 0 8.7 2.1 11.4 5.7l16.3 21.7c2.1 2.9 5.5 4.5 9.1 4.5 8.4 0 13.9-8.9 10.1-16.4l-1.1-2.3c-3.5-7 0-15.5 7.5-18l21.2-7.1c7.6-2.5 12.7-9.6 12.7-17.6 0-10.3 8.3-18.6 18.6-18.6H400c8.8 0 16 7.2 16 16s-7.2 16-16 16h-20.7c-7.2 0-14.2 2.9-19.3 8l-4.7 4.7c-2.1 2.1-3.3 5-3.3 8 0 6.2 5.1 11.3 11.3 11.3h11.3c6 0 11.8 2.4 16 6.6l6.5 6.5c1.8 1.8 2.8 4.3 2.8 6.8s-1 5-2.8 6.8l-7.5 7.5c-3.6 3.8-5.6 8.7-5.6 13.8s2 10 5.7 13.7L408 304c10.2 10.2 24.1 16 38.6 16h7.4c6.5-20.2 10-41.7 10-64 0-111.4-87.6-202.4-197.7-207.7zm172 307.9c-3.7-2.6-8.2-4.1-13-4.1-6 0-11.8-2.4-16-6.6L396 332c-7.7-7.7-18-12-28.9-12-9.7 0-19.2-3.5-26.6-9.8L314 287.4c-11.6-9.9-26.4-15.4-41.6-15.4h-21c-12.6 0-25 3.7-35.5 10.7L188.5 301c-17.8 11.9-28.5 31.9-28.5 53.3v3.2c0 17 6.7 33.3 18.7 45.3l16 16c8.5 8.5 20 13.3 32 13.3H248c13.3 0 24 10.7 24 24 0 2.5.4 5 1.1 7.3 71.3-5.8 132.5-47.6 165.2-107.2zM0 256a256 256 0 1 1 512 0 256 256 0 1 1-512 0zm187.3-155.3c-6.2-6.2-16.4-6.2-22.6 0l-32 32c-6.2 6.2-6.2 16.4 0 22.6s16.4 6.2 22.6 0l32-32c6.2-6.2 6.2-16.4 0-22.6z"/></symbol><symbol viewBox="0 0 512 512" id="envelope-solid" xmlns="http://www.w3.org/2000/svg"><!--! Font Awesome Pro 6.3.0 by @fontawesome - https://fontawesome.com License - https://fontawesome.com/license (Commercial License) Copyright 2023 Fonticons, Inc.--><path d="M48 64C21.5 64 0 85.5 0 112c0 15.1 7.1 29.3 19.2 38.4l217.6 163.2c11.4 8.5 27 8.5 38.4 0l217.6-163.2c12.1-9.1 19.2-23.3 19.2-38.4 0-26.5-21.5-48-48-48H48zM0 176v208c0 35.3 28.7 64 64 64h384c35.3 0 64-28.7 64-64V176L294.4 339.2a63.9 63.9 0 0 1-76.8 0L0 176z"/></symbol><symbol viewBox="0 0 320 512" id="facebook-f" xmlns="http://www.w3.org/2000/svg"><!--! Font Awesome Pro 6.3.0 by @fontawesome - https://fontawesome.com License - https://fontawesome.com/license (Commercial License) Copyright 2023 Fonticons, Inc.--><path d="m279.14 288 14.22-92.66h-88.91v-60.13c0-25.35 12.42-50.06 52.24-50.06h40.42V6.26S260.43 0 225.36 0c-73.22 0-121.08 44.38-121.08 124.72v70.62H22.89V288h81.39v224h100.17V288z"/></symbol><symbol viewBox="0 0 640 512" id="gamepad-solid" xmlns="http://www.w3.org/2000/svg"><!--! Font Awesome Pro 6.3.0 by @fontawesome - https://fontawesome.com License - https://fontawesome.com/license (Commercial License) Copyright 2023 Fonticons, Inc.--><path d="M192 64C86 64 0 150 0 256s86 192 192 192h256c106 0 192-86 192-192S554 64 448 64H192zm304 184c-22.1 0-40-17.9-40-40s17.9-40 40-40 40 17.9 40 40-17.9 40-40 40zm-24 56c0 22.1-17.9 40-40 40s-40-17.9-40-40 17.9-40 40-40 40 17.9 40 40zM168 200c0-13.3 10.7-24 24-24s24 10.7 24 24v32h32c13.3 0 24 10.7 24 24s-10.7 24-24 24h-32v32c0 13.3-10.7 24-24 24s-24-10.7-24-24v-32h-32c-13.3 0-24-10.7-24-24s10.7-24 24-24h32v-32z"/></symbol><symbol viewBox="0 0 640 512" id="graduation-cap-solid" xmlns="http://www.w3.org/2000/svg"><!--! Font Awesome Pro 6.3.0 by @fontawesome - https://fontawesome.com License - https://fontawesome.com/license (Commercial License) Copyright 2023 Fonticons, Inc.--><path d="M320 32c-8.1 0-16.1 1.4-23.7 4.1L15.8 137.4C6.3 140.9 0 149.9 0 160s6.3 19.1 15.8 22.6l57.9 20.9C57.3 229.3 48 259.8 48 291.9V320c0 28.4-10.8 57.7-22.3 80.8-6.5 13-13.9 25.8-22.5 37.6-3.2 4.3-4.1 9.9-2.3 15s6 8.9 11.2 10.2l64 16c4.2 1.1 8.7.3 12.4-2s6.3-6.1 7.1-10.4c8.6-42.8 4.3-81.2-2.1-108.7-3.2-14.2-7.5-28.7-13.5-42v-24.6c0-30.2 10.2-58.7 27.9-81.5 12.9-15.5 29.6-28 49.2-35.7l157-61.7c8.2-3.2 17.5.8 20.7 9s-.8 17.5-9 20.7l-157 61.7c-12.4 4.9-23.3 12.4-32.2 21.6l159.6 57.6c7.6 2.7 15.6 4.1 23.7 4.1s16.1-1.4 23.7-4.1l280.6-101c9.5-3.4 15.8-12.5 15.8-22.6s-6.3-19.1-15.8-22.6L343.7 36.1c-7.6-2.7-15.6-4.1-23.7-4.1zM128 408c0 35.3 86 72 192 72s192-36.7 192-72l-15.3-145.4L354.5 314c-11.1 4-22.8 6-34.5 6s-23.5-2-34.5-6l-142.2-51.4L128 408z"/></symbol><symbol viewBox="0 0 512 512" id="headphones-solid" xmlns="http://www.w3.org/2000/svg"><!--! Font Awesome Pro 6.3.0 by @fontawesome - https://fontawesome.com License - https://fontawesome.com/license (Commercial License) Copyright 2023 Fonticons, Inc.--><path d="M256 80C149.9 80 62.4 159.4 49.6 262c9.4-3.8 19.6-6 30.4-6 26.5 0 48 21.5 48 48v128c0 26.5-21.5 48-48 48-44.2 0-80-35.8-80-80V288C0 146.6 114.6 32 256 32s256 114.6 256 256v112c0 44.2-35.8 80-80 80-26.5 0-48-21.5-48-48V304c0-26.5 21.5-48 48-48 10.8 0 21 2.1 30.4 6C449.6 159.4 362.1 80 256 80z"/></symbol><symbol viewBox="0 0 384 512" id="html5" xmlns="http://www.w3.org/2000/svg"><!--! Font Awesome Pro 6.3.0 by @fontawesome - https://fontawesome.com License - https://fontawesome.com/license (Commercial License) Copyright 2023 Fonticons, Inc.--><path d="m0 32 34.9 395.8L191.5 480l157.6-52.2L384 32H0zm308.2 127.9H124.4l4.1 49.4h175.6l-13.6 148.4-97.9 27v.3h-1.1l-98.7-27.3-6-75.8h47.7L138 320l53.5 14.5 53.7-14.5 6-62.2H84.3L71.5 112.2h241.1l-4.4 47.7z"/></symbol><symbol viewBox="0 0 128 128" id="jquery" xmlns="http://www.w3.org/2000/svg"><path fill="#0868AC" d="M27.758 20.421c-7.352 10.565-6.437 24.312-.82 35.54l.411.798.263.506.164.291.293.524c.174.307.353.612.536.919l.306.504c.203.326.41.65.622.973l.265.409c.293.437.592.872.901 1.301l.026.033.152.205c.267.368.542.732.821 1.093l.309.393c.249.313.502.623.759.934l.29.346c.345.406.698.812 1.057 1.208l.021.022.041.045c.351.383.71.758 1.075 1.133l.344.347c.282.284.569.563.858.841l.351.334c.387.364.777.722 1.176 1.07l.018.016.205.174c.351.305.708.605 1.068.902l.442.353c.294.235.591.468.89.696l.477.361c.33.243.663.482.999.717l.363.258.101.072c.318.22.645.431.97.642l.42.28c.5.315 1.007.628 1.519.93l.42.237c.377.217.756.431 1.14.639l.631.326.816.424.188.091.334.161c.427.204.858.405 1.293.599l.273.122c.498.218 1.001.427 1.508.628l.368.144c.469.182.945.359 1.423.527l.179.062c.524.184 1.054.353 1.587.52l.383.114c.542.164 1.079.358 1.638.462 35.553 6.483 45.88-21.364 45.88-21.364-8.674 11.3-24.069 14.28-38.656 10.962-.553-.125-1.089-.298-1.628-.456l-.406-.124a44.793 44.793 0 0 1-1.568-.51l-.215-.077a49.537 49.537 0 0 1-1.382-.513l-.388-.152c-.501-.198-1-.405-1.492-.62l-.298-.133a55.398 55.398 0 0 1-1.259-.585l-.364-.175c-.327-.159-.65-.328-.974-.495l-.649-.341c-.395-.21-.782-.43-1.167-.654l-.394-.219a58.203 58.203 0 0 1-1.52-.932l-.41-.273a40.515 40.515 0 0 1-1.081-.719l-.349-.245a54.203 54.203 0 0 1-1.022-.738l-.453-.343c-.31-.237-.618-.476-.922-.721l-.411-.33c-.388-.318-.771-.64-1.149-.969l-.126-.105a54.797 54.797 0 0 1-1.208-1.098l-.34-.328a33.158 33.158 0 0 1-.868-.851l-.34-.34c-.362-.37-.717-.745-1.065-1.126l-.053-.057a41.973 41.973 0 0 1-1.08-1.229l-.283-.336a44.66 44.66 0 0 1-.777-.961l-.285-.355a52.469 52.469 0 0 1-.898-1.195c-8.098-11.047-11.008-26.283-4.535-38.795m17.081-1.626c-5.316 7.65-5.028 17.893-.88 25.983a33.747 33.747 0 0 0 2.351 3.925c.796 1.143 1.68 2.501 2.737 3.418.383.422.784.834 1.193 1.238l.314.311c.397.385.801.764 1.218 1.132l.05.043.012.012c.462.405.939.794 1.423 1.178l.323.252c.486.372.981.738 1.489 1.087l.043.033.68.447.322.213c.363.233.73.459 1.104.676l.156.092c.322.185.648.367.975.545l.347.18.682.354.103.047c.469.23.941.453 1.424.663l.314.13c.386.163.775.323 1.167.473l.5.184c.356.132.712.253 1.072.373l.484.155c.511.158 1.017.359 1.549.448 27.45 4.547 33.787-16.588 33.787-16.588-5.712 8.228-16.775 12.153-28.58 9.089a34.726 34.726 0 0 1-1.555-.449l-.467-.151a29 29 0 0 1-1.087-.374l-.491-.183a38.673 38.673 0 0 1-1.171-.473l-.315-.133a32.78 32.78 0 0 1-1.432-.666l-.718-.365-.414-.213c-.306-.166-.61-.338-.909-.514l-.217-.123a30.75 30.75 0 0 1-1.1-.672l-.332-.221-.712-.472a37.364 37.364 0 0 1-1.484-1.085l-.334-.264c-5.167-4.079-9.263-9.655-11.21-15.977-2.041-6.557-1.601-13.917 1.935-19.891m14.847-.518c-3.134 4.612-3.442 10.341-1.267 15.435 2.293 5.407 6.992 9.648 12.477 11.66l.682.235.3.096c.323.102.644.22.978.282 15.157 2.929 19.268-7.777 20.362-9.354-3.601 5.185-9.653 6.43-17.079 4.627a18.837 18.837 0 0 1-1.796-.555 22.303 22.303 0 0 1-2.134-.886 22.19 22.19 0 0 1-3.741-2.282c-6.645-5.042-10.772-14.659-6.436-22.492"/><path fill="#131B28" d="M66.359 96.295h-4.226a.556.556 0 0 0-.517.417l-1.5 6.94-1.5 6.94a.554.554 0 0 1-.516.417h-2.991c-2.959 0-2.617-2.047-2.011-4.851l.018-.085.066-.354.012-.066.135-.72.145-.771.154-.785.682-3.332.683-3.332a.336.336 0 0 0-.341-.419h-4.337a.55.55 0 0 0-.514.418l-.933 4.424-.932 4.425-.002.006-.086.412c-1.074 4.903-.79 9.58 5.048 9.727l.17.003h9.163a.554.554 0 0 0 .516-.417l1.976-9.289 1.976-9.29c.049-.23-.103-.417-.338-.418zm-45.256-.049h-4.64a.562.562 0 0 0-.521.416l-.44 1.942-.44 1.942c-.051.229.098.416.333.416h4.676a.556.556 0 0 0 .518-.417l.425-1.941.425-1.941c.049-.229-.101-.417-.336-.417zm-1.346 6.044H15.08a.563.563 0 0 0-.521.416l-.657 2.91-.656 2.909-.183.834-.631 2.97-.63 2.971c-.049.229-.15.599-.225.821 0 0-.874 2.6-2.343 2.57l-.184-.004-1.271-.023h-.001a.558.558 0 0 0-.524.407l-.485 2.039-.484 2.038c-.055.228.093.416.326.42.833.01 2.699.031 3.828.031 3.669 0 5.604-2.033 6.843-7.883l1.451-6.714 1.361-6.297c.049-.227-.103-.415-.337-.415zm86.117-1.574-.194-.801-.191-.82-.097-.414c-.38-1.477-1.495-2.328-3.917-2.328l-3.77-.004-3.472-.005h-3.907a.552.552 0 0 0-.515.417l-.173.816-.204.964-.057.271-1.759 8.24-1.67 7.822c-.05.23-.066.512-.038.626.028.115.479.209.713.209h3.524c.235 0 .532-.042.66-.094s.317-.513.364-.742l.626-3.099.627-3.1.001-.005.084-.413.76-3.56.671-3.144a.555.555 0 0 1 .515-.417l11.089-.005c.235.002.383-.185.33-.414zm14.275-7.24-.854.003h-3.549a.904.904 0 0 0-.667.353l-7.849 11.498c-.132.194-.283.166-.335-.062l-.578-2.533a.562.562 0 0 0-.522-.416h-5.045c-.235 0-.374.184-.31.409l2.261 7.921c.064.226.069.596.011.824l-.985 3.833c-.059.228.085.413.32.413h4.987a.58.58 0 0 0 .532-.413l.986-3.833a2.52 2.52 0 0 1 .363-.755l12.742-16.911c.142-.188.065-.341-.169-.339l-1.339.008zm-40.086 9.919v-.004a.514.514 0 0 1-.499.441h-6.397c-.222 0-.334-.15-.301-.336l.006-.015-.004.002.003-.021.029-.109c.611-1.624 1.855-2.69 4.194-2.69 2.634-.001 3.148 1.285 2.969 2.732zm-1.877-7.384c-8.211 0-10.157 4.984-11.249 10.015-1.091 5.128-.998 9.921 7.5 9.921h1.03l.256-.001h.06l1.02-.003h.018c2.244-.009 4.495-.026 5.406-.033a.553.553 0 0 0 .509-.42l.344-1.681.067-.327.41-2.006a.335.335 0 0 0-.341-.418h-7.639c-3.039 0-3.941-.807-3.608-3.181H84.18l-.001.001.008-.001a.503.503 0 0 0 .445-.315l.029-.106-.001.001c1.813-6.839 1.293-11.445-6.474-11.446zm-38.81 7.358-.116.409v.001l-.922 3.268-.922 3.267a.596.596 0 0 1-.543.411h-4.88c-3.702 0-4.604-2.896-3.702-7.166.901-4.368 2.668-7.083 6.312-7.358 4.98-.376 5.976 3.126 4.773 7.168zm3.348 7.105s2.301-5.588 2.823-8.814c.713-4.319-1.45-10.585-9.804-10.585-8.306 0-11.914 5.981-13.29 12.484-1.376 6.55.427 12.293 8.686 12.246l6.516-.024 6.089-.022a.59.59 0 0 0 .534-.414l1.061-4.046c.059-.228-.084-.414-.319-.416l-1.017-.006-1.017-.006c-.199-.001-.313-.131-.289-.302l.027-.095zm41.12-3.741a.28.28 0 1 1-.56.001.28.28 0 0 1 .56-.001z"/></symbol><symbol viewBox="0 0 448 512" id="js" xmlns="http://www.w3.org/2000/svg"><!--! Font Awesome Pro 6.3.0 by @fontawesome - https://fontawesome.com License - https://fontawesome.com/license (Commercial License) Copyright 2023 Fonticons, Inc.--><path d="M0 32v448h448V32H0zm243.8 349.4c0 43.6-25.6 63.5-62.9 63.5-33.7 0-53.2-17.4-63.2-38.5l34.3-20.7c6.6 11.7 12.6 21.6 27.1 21.6 13.8 0 22.6-5.4 22.6-26.5V237.7h42.1v143.7zm99.6 63.5c-39.1 0-64.4-18.6-76.7-43l34.3-19.8c9 14.7 20.8 25.6 41.5 25.6 17.4 0 28.6-8.7 28.6-20.8 0-14.4-11.4-19.5-30.7-28l-10.5-4.5c-30.4-12.9-50.5-29.2-50.5-63.5 0-31.6 24.1-55.6 61.6-55.6 26.8 0 46 9.3 59.8 33.7L368 290c-7.2-12.9-15-18-27.1-18-12.3 0-20.1 7.8-20.1 18 0 12.6 7.8 17.7 25.9 25.6l10.5 4.5c35.8 15.3 55.9 31 55.9 66.2 0 37.8-29.8 58.6-69.7 58.6z"/></symbol><symbol viewBox="0 0 448 512" id="linkedin-in" xmlns="http://www.w3.org/2000/svg"><!--! Font Awesome Pro 6.3.0 by @fontawesome - https://fontawesome.com License - https://fontawesome.com/license (Commercial License) Copyright 2023 Fonticons, Inc.--><path d="M100.28 448H7.4V148.9h92.88zM53.79 108.1C24.09 108.1 0 83.5 0 53.8a53.79 53.79 0 0 1 107.58 0c0 29.7-24.1 54.3-53.79 54.3zM447.9 448h-92.68V302.4c0-34.7-.7-79.2-48.29-79.2-48.29 0-55.69 37.7-55.69 76.7V448h-92.78V148.9h89.08v40.8h1.3c12.4-23.5 42.69-48.3 87.88-48.3 94 0 111.28 61.9 111.28 142.3V448z"/></symbol><symbol viewBox="0 0 320 512" id="map-pin-solid" xmlns="http://www.w3.org/2000/svg"><!--! Font Awesome Pro 6.3.0 by @fontawesome - https://fontawesome.com License - https://fontawesome.com/license (Commercial License) Copyright 2023 Fonticons, Inc.--><path d="M32 144a144 144 0 1 1 288 0 144 144 0 1 1-288 0zm144-64c8.8 0 16-7.2 16-16s-7.2-16-16-16c-53 0-96 43-96 96 0 8.8 7.2 16 16 16s16-7.2 16-16c0-35.3 28.7-64 64-64zm-32 400V317.1a177.984 177.984 0 0 0 64 0V480c0 17.7-14.3 32-32 32s-32-14.3-32-32z"/></symbol><symbol viewBox="0 0 384 512" id="mobile-screen-button-solid" xmlns="http://www.w3.org/2000/svg"><!--! Font Awesome Pro 6.3.0 by @fontawesome - https://fontawesome.com License - https://fontawesome.com/license (Commercial License) Copyright 2023 Fonticons, Inc.--><path d="M0 64C0 28.7 28.7 0 64 0h224c35.3 0 64 28.7 64 64v384c0 35.3-28.7 64-64 64H64c-35.3 0-64-28.7-64-64V64zm208 384a32 32 0 1 0-64 0 32 32 0 1 0 64 0zm80-384H64v320h224V64z"/></symbol><symbol viewBox="0 0 640 512" id="node" xmlns="http://www.w3.org/2000/svg"><!--! Font Awesome Pro 6.3.0 by @fontawesome - https://fontawesome.com License - https://fontawesome.com/license (Commercial License) Copyright 2023 Fonticons, Inc.--><path d="M316.3 452c-2.1 0-4.2-.6-6.1-1.6L291 439c-2.9-1.6-1.5-2.2-.5-2.5 3.8-1.3 4.6-1.6 8.7-4 .4-.2 1-.1 1.4.1l14.8 8.8c.5.3 1.3.3 1.8 0L375 408c.5-.3.9-.9.9-1.6v-66.7c0-.7-.3-1.3-.9-1.6l-57.8-33.3c-.5-.3-1.2-.3-1.8 0l-57.8 33.3c-.6.3-.9 1-.9 1.6v66.7c0 .6.4 1.2.9 1.5l15.8 9.1c8.6 4.3 13.9-.8 13.9-5.8v-65.9c0-.9.7-1.7 1.7-1.7h7.3c.9 0 1.7.7 1.7 1.7v65.9c0 11.5-6.2 18-17.1 18-3.3 0-6 0-13.3-3.6l-15.2-8.7c-3.7-2.2-6.1-6.2-6.1-10.5v-66.7c0-4.3 2.3-8.4 6.1-10.5l57.8-33.4c3.7-2.1 8.5-2.1 12.1 0l57.8 33.4c3.7 2.2 6.1 6.2 6.1 10.5v66.7c0 4.3-2.3 8.4-6.1 10.5l-57.8 33.4c-1.7 1.1-3.8 1.7-6 1.7zm46.7-65.8c0-12.5-8.4-15.8-26.2-18.2-18-2.4-19.8-3.6-19.8-7.8 0-3.5 1.5-8.1 14.8-8.1 11.9 0 16.3 2.6 18.1 10.6.2.8.8 1.3 1.6 1.3h7.5c.5 0 .9-.2 1.2-.5.3-.4.5-.8.4-1.3-1.2-13.8-10.3-20.2-28.8-20.2-16.5 0-26.3 7-26.3 18.6 0 12.7 9.8 16.1 25.6 17.7 18.9 1.9 20.4 4.6 20.4 8.3 0 6.5-5.2 9.2-17.4 9.2-15.3 0-18.7-3.8-19.8-11.4-.1-.8-.8-1.4-1.7-1.4h-7.5c-.9 0-1.7.7-1.7 1.7 0 9.7 5.3 21.3 30.6 21.3 18.5 0 29-7.2 29-19.8zm54.5-50.1c0 6.1-5 11.1-11.1 11.1s-11.1-5-11.1-11.1c0-6.3 5.2-11.1 11.1-11.1 6-.1 11.1 4.8 11.1 11.1zm-1.8 0c0-5.2-4.2-9.3-9.4-9.3-5.1 0-9.3 4.1-9.3 9.3 0 5.2 4.2 9.4 9.3 9.4 5.2-.1 9.4-4.3 9.4-9.4zm-4.5 6.2h-2.6c-.1-.6-.5-3.8-.5-3.9-.2-.7-.4-1.1-1.3-1.1h-2.2v5h-2.4v-12.5h4.3c1.5 0 4.4 0 4.4 3.3 0 2.3-1.5 2.8-2.4 3.1 1.7.1 1.8 1.2 2.1 2.8.1 1 .3 2.7.6 3.3zm-2.8-8.8c0-1.7-1.2-1.7-1.8-1.7h-2v3.5h1.9c1.6 0 1.9-1.1 1.9-1.8zM137.3 191c0-2.7-1.4-5.1-3.7-6.4l-61.3-35.3c-1-.6-2.2-.9-3.4-1h-.6c-1.2 0-2.3.4-3.4 1L3.7 184.6C1.4 185.9 0 188.4 0 191l.1 95c0 1.3.7 2.5 1.8 3.2 1.1.7 2.5.7 3.7 0L42 268.3c2.3-1.4 3.7-3.8 3.7-6.4v-44.4c0-2.6 1.4-5.1 3.7-6.4l15.5-8.9c1.2-.7 2.4-1 3.7-1 1.3 0 2.6.3 3.7 1l15.5 8.9c2.3 1.3 3.7 3.8 3.7 6.4v44.4c0 2.6 1.4 5.1 3.7 6.4l36.4 20.9c1.1.7 2.6.7 3.7 0 1.1-.6 1.8-1.9 1.8-3.2l.2-95zM472.5 87.3v176.4c0 2.6-1.4 5.1-3.7 6.4l-61.3 35.4c-2.3 1.3-5.1 1.3-7.4 0l-61.3-35.4c-2.3-1.3-3.7-3.8-3.7-6.4v-70.8c0-2.6 1.4-5.1 3.7-6.4l61.3-35.4c2.3-1.3 5.1-1.3 7.4 0l15.3 8.8c1.7 1 3.9-.3 3.9-2.2v-94c0-2.8 3-4.6 5.5-3.2l36.5 20.4c2.3 1.2 3.8 3.7 3.8 6.4zm-46 128.9c0-.7-.4-1.3-.9-1.6l-21-12.2c-.6-.3-1.3-.3-1.9 0l-21 12.2c-.6.3-.9.9-.9 1.6v24.3c0 .7.4 1.3.9 1.6l21 12.1c.6.3 1.3.3 1.8 0l21-12.1c.6-.3.9-.9.9-1.6v-24.3zm209.8-.7c2.3-1.3 3.7-3.8 3.7-6.4V192c0-2.6-1.4-5.1-3.7-6.4l-60.9-35.4c-2.3-1.3-5.1-1.3-7.4 0l-61.3 35.4c-2.3 1.3-3.7 3.8-3.7 6.4v70.8c0 2.7 1.4 5.1 3.7 6.4l60.9 34.7c2.2 1.3 5 1.3 7.3 0l36.8-20.5c2.5-1.4 2.5-5 0-6.4L550 241.6c-1.2-.7-1.9-1.9-1.9-3.2v-22.2c0-1.3.7-2.5 1.9-3.2l19.2-11.1c1.1-.7 2.6-.7 3.7 0l19.2 11.1c1.1.7 1.9 1.9 1.9 3.2v17.4c0 2.8 3.1 4.6 5.6 3.2l36.7-21.3zM559 219c-.4.3-.7.7-.7 1.2v13.6c0 .5.3 1 .7 1.2l11.8 6.8c.4.3 1 .3 1.4 0L584 235c.4-.3.7-.7.7-1.2v-13.6c0-.5-.3-1-.7-1.2l-11.8-6.8c-.4-.3-1-.3-1.4 0L559 219zm-254.2 43.5v-70.4c0-2.6-1.6-5.1-3.9-6.4l-61.1-35.2c-2.1-1.2-5-1.4-7.4 0l-61.1 35.2c-2.3 1.3-3.9 3.7-3.9 6.4v70.4c0 2.8 1.9 5.2 4 6.4l61.2 35.2c2.4 1.4 5.2 1.3 7.4 0l61-35.2c1.8-1 3.1-2.7 3.6-4.7.1-.5.2-1.1.2-1.7zm-74.3-124.9-.8.5h1.1l-.3-.5zm76.2 130.2-.4-.7v.9l.4-.2z"/></symbol><symbol viewBox="0 0 576 512" id="npm" xmlns="http://www.w3.org/2000/svg"><!--! Font Awesome Pro 6.3.0 by @fontawesome - https://fontawesome.com License - https://fontawesome.com/license (Commercial License) Copyright 2023 Fonticons, Inc.--><path d="M288 288h-32v-64h32v64zm288-128v192H288v32H160v-32H0V160h576zm-416 32H32v128h64v-96h32v96h32V192zm160 0H192v160h64v-32h64V192zm224 0H352v128h64v-96h32v96h32v-96h32v96h32V192z"/></symbol><symbol viewBox="0 0 320 512" id="person-walking-solid" xmlns="http://www.w3.org/2000/svg"><!--! Font Awesome Pro 6.3.0 by @fontawesome - https://fontawesome.com License - https://fontawesome.com/license (Commercial License) Copyright 2023 Fonticons, Inc.--><path d="M160 48a48 48 0 1 1 96 0 48 48 0 1 1-96 0zm-33.5 151.3c-1 .4-1.9.8-2.9 1.2l-8 3.5c-16.4 7.3-29 21.2-34.7 38.2l-2.6 7.8c-5.6 16.8-23.7 25.8-40.5 20.2S12 246.5 17.6 229.7l2.6-7.8c11.4-34.1 36.6-61.9 69.4-76.5l8-3.5c20.8-9.2 43.3-14 66.1-14 44.6 0 84.8 26.8 101.9 67.9l15.4 36.9 21.4 10.7c15.8 7.9 22.2 27.1 14.3 42.9s-27.1 22.2-42.9 14.3L247 287.3c-10.3-5.2-18.4-13.8-22.8-24.5l-9.6-23-19.3 65.5 49.5 54c5.4 5.9 9.2 13 11.2 20.8l23 92.1c4.3 17.1-6.1 34.5-23.3 38.8s-34.5-6.1-38.8-23.3l-22-88.1-70.7-77.1c-14.8-16.1-20.3-38.6-14.7-59.7l16.9-63.5zM68.7 398l25-62.4c2.1 3 4.5 5.8 7 8.6l40.7 44.4-14.5 36.2c-2.4 6-6 11.5-10.6 16.1l-61.7 61.7c-12.5 12.5-32.8 12.5-45.3 0s-12.5-32.8 0-45.3L68.7 398z"/></symbol><symbol viewBox="0 0 576 512" id="plane-solid" xmlns="http://www.w3.org/2000/svg"><!--! Font Awesome Pro 6.3.0 by @fontawesome - https://fontawesome.com License - https://fontawesome.com/license (Commercial License) Copyright 2023 Fonticons, Inc.--><path d="M482.3 192c34.2 0 93.7 29 93.7 64 0 36-59.5 64-93.7 64H365.7L265.2 495.9c-5.7 10-16.3 16.1-27.8 16.1h-56.2c-10.6 0-18.3-10.2-15.4-20.4l49-171.6H112l-43.2 57.6c-3 4-7.8 6.4-12.8 6.4H14c-7.8 0-14-6.3-14-14 0-1.3.2-2.6.5-3.9L32 256 .5 145.9c-.4-1.3-.5-2.6-.5-3.9 0-7.8 6.3-14 14-14h42c5 0 9.8 2.4 12.8 6.4L112 192h102.9l-49-171.6c-3-10.2 4.7-20.4 15.3-20.4h56.2c11.5 0 22.1 6.2 27.8 16.1L365.7 192h116.6z"/></symbol><symbol viewBox="0 0 512 512" id="react" xmlns="http://www.w3.org/2000/svg"><!--! Font Awesome Pro 6.3.0 by @fontawesome - https://fontawesome.com License - https://fontawesome.com/license (Commercial License) Copyright 2023 Fonticons, Inc.--><path d="M418.2 177.2c-5.4-1.8-10.8-3.5-16.2-5.1.9-3.7 1.7-7.4 2.5-11.1 12.3-59.6 4.2-107.5-23.1-123.3-26.3-15.1-69.2.6-112.6 38.4-4.3 3.7-8.5 7.6-12.5 11.5-2.7-2.6-5.5-5.2-8.3-7.7-45.5-40.4-91.1-57.4-118.4-41.5-26.2 15.2-34 60.3-23 116.7 1.1 5.6 2.3 11.1 3.7 16.7-6.4 1.8-12.7 3.8-18.6 5.9C38.3 196.2 0 225.4 0 255.6c0 31.2 40.8 62.5 96.3 81.5 4.5 1.5 9 3 13.6 4.3-1.5 6-2.8 11.9-4 18-10.5 55.5-2.3 99.5 23.9 114.6 27 15.6 72.4-.4 116.6-39.1 3.5-3.1 7-6.3 10.5-9.7 4.4 4.3 9 8.4 13.6 12.4 42.8 36.8 85.1 51.7 111.2 36.6 27-15.6 35.8-62.9 24.4-120.5-.9-4.4-1.9-8.9-3-13.5 3.2-.9 6.3-1.9 9.4-2.9 57.7-19.1 99.5-50 99.5-81.7 0-30.3-39.4-59.7-93.8-78.4zM282.9 92.3c37.2-32.4 71.9-45.1 87.7-36 16.9 9.7 23.4 48.9 12.8 100.4-.7 3.4-1.4 6.7-2.3 10-22.2-5-44.7-8.6-67.3-10.6-13-18.6-27.2-36.4-42.6-53.1 3.9-3.7 7.7-7.2 11.7-10.7zM167.2 307.5c5.1 8.7 10.3 17.4 15.8 25.9-15.6-1.7-31.1-4.2-46.4-7.5 4.4-14.4 9.9-29.3 16.3-44.5 4.6 8.8 9.3 17.5 14.3 26.1zm-30.3-120.3c14.4-3.2 29.7-5.8 45.6-7.8-5.3 8.3-10.5 16.8-15.4 25.4-4.9 8.5-9.7 17.2-14.2 26-6.3-14.9-11.6-29.5-16-43.6zm27.4 68.9c6.6-13.8 13.8-27.3 21.4-40.6s15.8-26.2 24.4-38.9c15-1.1 30.3-1.7 45.9-1.7s31 .6 45.9 1.7c8.5 12.6 16.6 25.5 24.3 38.7s14.9 26.7 21.7 40.4c-6.7 13.8-13.9 27.4-21.6 40.8-7.6 13.3-15.7 26.2-24.2 39-14.9 1.1-30.4 1.6-46.1 1.6s-30.9-.5-45.6-1.4c-8.7-12.7-16.9-25.7-24.6-39s-14.8-26.8-21.5-40.6zm180.6 51.2c5.1-8.8 9.9-17.7 14.6-26.7 6.4 14.5 12 29.2 16.9 44.3-15.5 3.5-31.2 6.2-47 8 5.4-8.4 10.5-17 15.5-25.6zm14.4-76.5c-4.7-8.8-9.5-17.6-14.5-26.2-4.9-8.5-10-16.9-15.3-25.2 16.1 2 31.5 4.7 45.9 8-4.6 14.8-10 29.2-16.1 43.4zM256.2 118.3c10.5 11.4 20.4 23.4 29.6 35.8-19.8-.9-39.7-.9-59.5 0 9.8-12.9 19.9-24.9 29.9-35.8zM140.2 57c16.8-9.8 54.1 4.2 93.4 39 2.5 2.2 5 4.6 7.6 7-15.5 16.7-29.8 34.5-42.9 53.1-22.6 2-45 5.5-67.2 10.4-1.3-5.1-2.4-10.3-3.5-15.5-9.4-48.4-3.2-84.9 12.6-94zm-24.5 263.6c-4.2-1.2-8.3-2.5-12.4-3.9-21.3-6.7-45.5-17.3-63-31.2-10.1-7-16.9-17.8-18.8-29.9 0-18.3 31.6-41.7 77.2-57.6 5.7-2 11.5-3.8 17.3-5.5 6.8 21.7 15 43 24.5 63.6-9.6 20.9-17.9 42.5-24.8 64.5zm116.6 98c-16.5 15.1-35.6 27.1-56.4 35.3-11.1 5.3-23.9 5.8-35.3 1.3-15.9-9.2-22.5-44.5-13.5-92 1.1-5.6 2.3-11.2 3.7-16.7 22.4 4.8 45 8.1 67.9 9.8 13.2 18.7 27.7 36.6 43.2 53.4-3.2 3.1-6.4 6.1-9.6 8.9zm24.5-24.3c-10.2-11-20.4-23.2-30.3-36.3 9.6.4 19.5.6 29.5.6 10.3 0 20.4-.2 30.4-.7-9.2 12.7-19.1 24.8-29.6 36.4zm130.7 30c-.9 12.2-6.9 23.6-16.5 31.3-15.9 9.2-49.8-2.8-86.4-34.2-4.2-3.6-8.4-7.5-12.7-11.5 15.3-16.9 29.4-34.8 42.2-53.6 22.9-1.9 45.7-5.4 68.2-10.5 1 4.1 1.9 8.2 2.7 12.2 4.9 21.6 5.7 44.1 2.5 66.3zm18.2-107.5c-2.8.9-5.6 1.8-8.5 2.6-7-21.8-15.6-43.1-25.5-63.8 9.6-20.4 17.7-41.4 24.5-62.9 5.2 1.5 10.2 3.1 15 4.7 46.6 16 79.3 39.8 79.3 58 0 19.6-34.9 44.9-84.8 61.4zm-149.7-15c25.3 0 45.8-20.5 45.8-45.8s-20.5-45.8-45.8-45.8c-25.3 0-45.8 20.5-45.8 45.8s20.5 45.8 45.8 45.8z"/></symbol><symbol viewBox="0 0 640 512" id="sass" xmlns="http://www.w3.org/2000/svg"><!--! Font Awesome Pro 6.3.0 by @fontawesome - https://fontawesome.com License - https://fontawesome.com/license (Commercial License) Copyright 2023 Fonticons, Inc.--><path d="M301.84 378.92c-.3.6-.6 1.08 0 0zm249.13-87a131.16 131.16 0 0 0-58 13.5c-5.9-11.9-12-22.3-13-30.1-1.2-9.1-2.5-14.5-1.1-25.3s7.7-26.1 7.6-27.2-1.4-6.6-14.3-6.7-24 2.5-25.29 5.9a122.83 122.83 0 0 0-5.3 19.1c-2.3 11.7-25.79 53.5-39.09 75.3-4.4-8.5-8.1-16-8.9-22-1.2-9.1-2.5-14.5-1.1-25.3s7.7-26.1 7.6-27.2-1.4-6.6-14.29-6.7-24 2.5-25.3 5.9-2.7 11.4-5.3 19.1-33.89 77.3-42.08 95.4c-4.2 9.2-7.8 16.6-10.4 21.6-.4.8-.7 1.3-.9 1.7.3-.5.5-1 .5-.8-2.2 4.3-3.5 6.7-3.5 6.7v.1c-1.7 3.2-3.6 6.1-4.5 6.1-.6 0-1.9-8.4.3-19.9 4.7-24.2 15.8-61.8 15.7-63.1-.1-.7 2.1-7.2-7.3-10.7-9.1-3.3-12.4 2.2-13.2 2.2s-1.4 2-1.4 2 10.1-42.4-19.39-42.4c-18.4 0-44 20.2-56.58 38.5-7.9 4.3-25 13.6-43 23.5-6.9 3.8-14 7.7-20.7 11.4-.5-.5-.9-1-1.4-1.5-35.79-38.2-101.87-65.2-99.07-116.5 1-18.7 7.5-67.8 127.07-127.4 98-48.8 176.35-35.4 189.84-5.6 19.4 42.5-41.89 121.6-143.66 133-38.79 4.3-59.18-10.7-64.28-16.3-5.3-5.9-6.1-6.2-8.1-5.1-3.3 1.8-1.2 7 0 10.1 3 7.9 15.5 21.9 36.79 28.9 18.7 6.1 64.18 9.5 119.17-11.8 61.78-23.8 109.87-90.1 95.77-145.6C386.52 18.32 293-.18 204.57 31.22c-52.69 18.7-109.67 48.1-150.66 86.4-48.69 45.6-56.48 85.3-53.28 101.9 11.39 58.9 92.57 97.3 125.06 125.7-1.6.9-3.1 1.7-4.5 2.5-16.29 8.1-78.18 40.5-93.67 74.7-17.5 38.8 2.9 66.6 16.29 70.4 41.79 11.6 84.58-9.3 107.57-43.6s20.2-79.1 9.6-99.5c-.1-.3-.3-.5-.4-.8 4.2-2.5 8.5-5 12.8-7.5 8.29-4.9 16.39-9.4 23.49-13.3-4 10.8-6.9 23.8-8.4 42.6-1.8 22 7.3 50.5 19.1 61.7 5.2 4.9 11.49 5 15.39 5 13.8 0 20-11.4 26.89-25 8.5-16.6 16-35.9 16-35.9s-9.4 52.2 16.3 52.2c9.39 0 18.79-12.1 23-18.3v.1s.2-.4.7-1.2c1-1.5 1.5-2.4 1.5-2.4v-.3c3.8-6.5 12.1-21.4 24.59-46 16.2-31.8 31.69-71.5 31.69-71.5a201.24 201.24 0 0 0 6.2 25.8c2.8 9.5 8.7 19.9 13.4 30-3.8 5.2-6.1 8.2-6.1 8.2a.31.31 0 0 0 .1.2c-3 4-6.4 8.3-9.9 12.5-12.79 15.2-28 32.6-30 37.6-2.4 5.9-1.8 10.3 2.8 13.7 3.4 2.6 9.4 3 15.69 2.5 11.5-.8 19.6-3.6 23.5-5.4a82.2 82.2 0 0 0 20.19-10.6c12.5-9.2 20.1-22.4 19.4-39.8-.4-9.6-3.5-19.2-7.3-28.2 1.1-1.6 2.3-3.3 3.4-5C434.8 301.72 450.1 270 450.1 270a201.24 201.24 0 0 0 6.2 25.8c2.4 8.1 7.09 17 11.39 25.7-18.59 15.1-30.09 32.6-34.09 44.1-7.4 21.3-1.6 30.9 9.3 33.1 4.9 1 11.9-1.3 17.1-3.5a79.46 79.46 0 0 0 21.59-11.1c12.5-9.2 24.59-22.1 23.79-39.6-.3-7.9-2.5-15.8-5.4-23.4 15.7-6.6 36.09-10.2 62.09-7.2 55.68 6.5 66.58 41.3 64.48 55.8s-13.8 22.6-17.7 25-5.1 3.3-4.8 5.1c.5 2.6 2.3 2.5 5.6 1.9 4.6-.8 29.19-11.8 30.29-38.7 1.6-34-31.09-71.4-89-71.1zm-429.18 144.7c-18.39 20.1-44.19 27.7-55.28 21.3C54.61 451 59.31 421.42 82 400c13.8-13 31.59-25 43.39-32.4 2.7-1.6 6.6-4 11.4-6.9.8-.5 1.2-.7 1.2-.7.9-.6 1.9-1.1 2.9-1.7 8.29 30.4.3 57.2-19.1 78.3zm134.36-91.4c-6.4 15.7-19.89 55.7-28.09 53.6-7-1.8-11.3-32.3-1.4-62.3 5-15.1 15.6-33.1 21.9-40.1 10.09-11.3 21.19-14.9 23.79-10.4 3.5 5.9-12.2 49.4-16.2 59.2zm111 53c-2.7 1.4-5.2 2.3-6.4 1.6-.9-.5 1.1-2.4 1.1-2.4s13.9-14.9 19.4-21.7c3.2-4 6.9-8.7 10.89-13.9 0 .5.1 1 .1 1.6-.13 17.9-17.32 30-25.12 34.8zm85.58-19.5c-2-1.4-1.7-6.1 5-20.7 2.6-5.7 8.59-15.3 19-24.5a36.18 36.18 0 0 1 1.9 10.8c-.1 22.5-16.2 30.9-25.89 34.4z"/></symbol><symbol viewBox="0 0 448 512" id="tree-solid" xmlns="http://www.w3.org/2000/svg"><!--! Font Awesome Pro 6.3.0 by @fontawesome - https://fontawesome.com License - https://fontawesome.com/license (Commercial License) Copyright 2023 Fonticons, Inc.--><path d="M210.6 5.9 62 169.4c-3.9 4.2-6 9.8-6 15.5 0 12.8 10.3 23.1 23.1 23.1H104l-73.4 73.4c-4.2 4.2-6.6 10-6.6 16 0 12.5 10.1 22.6 22.6 22.6H80L5.4 409.5c-3.5 4.2-5.4 9.5-5.4 15 0 13 10.5 23.5 23.5 23.5H192v32c0 17.7 14.3 32 32 32s32-14.3 32-32v-32h168.5c13 0 23.5-10.5 23.5-23.5 0-5.5-1.9-10.8-5.4-15L368 320h33.4c12.5 0 22.6-10.1 22.6-22.6 0-6-2.4-11.8-6.6-16L344 208h24.9c12.7 0 23.1-10.3 23.1-23.1 0-5.7-2.1-11.3-6-15.5L237.4 5.9C234 2.1 229.1 0 224 0s-10 2.1-13.4 5.9z"/></symbol><symbol viewBox="0 0 128 128" id="webpack" xmlns="http://www.w3.org/2000/svg"><path fill="#8ed6fb" d="M117.29 98.1 66.24 127v-22.51L98 87l19.29 11.1Zm3.5-3.16V34.55l-18.68 10.8v38.81l18.67 10.77ZM10.71 98.1l51 28.88v-22.49L29.94 87Zm-3.5-3.16V34.55l18.68 10.8v38.81Zm2.19-64.3L61.76 1v21.76L28.21 41.21l-.27.15Zm109.18 0L66.24 1v21.76L99.79 41.2l.27.15 18.54-10.71Z"/><path fill="#1c78c0" d="M61.76 99.37 30.37 82.1V47.92L61.76 66Zm4.48 0 31.39-17.25v-34.2L66.24 66ZM32.5 44 64 26.66 95.5 44 64 62.16 32.5 44Z"/></symbol><symbol viewBox="0 0 496 512" id="yarn" xmlns="http://www.w3.org/2000/svg"><!--! Font Awesome Pro 6.3.0 by @fontawesome - https://fontawesome.com License - https://fontawesome.com/license (Commercial License) Copyright 2023 Fonticons, Inc.--><path d="M393.9 345.2c-39 9.3-48.4 32.1-104 47.4 0 0-2.7 4-10.4 5.8-13.4 3.3-63.9 6-68.5 6.1-12.4.1-19.9-3.2-22-8.2-6.4-15.3 9.2-22 9.2-22-8.1-5-9-9.9-9.8-8.1-2.4 5.8-3.6 20.1-10.1 26.5-8.8 8.9-25.5 5.9-35.3.8-10.8-5.7.8-19.2.8-19.2s-5.8 3.4-10.5-3.6c-6-9.3-17.1-37.3 11.5-62-1.3-10.1-4.6-53.7 40.6-85.6 0 0-20.6-22.8-12.9-43.3 5-13.4 7-13.3 8.6-13.9 5.7-2.2 11.3-4.6 15.4-9.1 20.6-22.2 46.8-18 46.8-18s12.4-37.8 23.9-30.4c3.5 2.3 16.3 30.6 16.3 30.6s13.6-7.9 15.1-5c8.2 16 9.2 46.5 5.6 65.1-6.1 30.6-21.4 47.1-27.6 57.5-1.4 2.4 16.5 10 27.8 41.3 10.4 28.6 1.1 52.7 2.8 55.3.8 1.4 13.7.8 36.4-13.2 12.8-7.9 28.1-16.9 45.4-17 16.7-.5 17.6 19.2 4.9 22.2zM496 256c0 136.9-111.1 248-248 248S0 392.9 0 256 111.1 8 248 8s248 111.1 248 248zm-79.3 75.2c-1.7-13.6-13.2-23-28-22.8-22 .3-40.5 11.7-52.8 19.2-4.8 3-8.9 5.2-12.4 6.8 3.1-44.5-22.5-73.1-28.7-79.4 7.8-11.3 18.4-27.8 23.4-53.2 4.3-21.7 3-55.5-6.9-74.5-1.6-3.1-7.4-11.2-21-7.4-9.7-20-13-22.1-15.6-23.8-1.1-.7-23.6-16.4-41.4 28-12.2.9-31.3 5.3-47.5 22.8-2 2.2-5.9 3.8-10.1 5.4h.1c-8.4 3-12.3 9.9-16.9 22.3-6.5 17.4.2 34.6 6.8 45.7-17.8 15.9-37 39.8-35.7 82.5-34 36-11.8 73-5.6 79.6-1.6 11.1 3.7 19.4 12 23.8 12.6 6.7 30.3 9.6 43.9 2.8 4.9 5.2 13.8 10.1 30 10.1 6.8 0 58-2.9 72.6-6.5 6.8-1.6 11.5-4.5 14.6-7.1 9.8-3.1 36.8-12.3 62.2-28.7 18-11.7 24.2-14.2 37.6-17.4 12.9-3.2 21-15.1 19.4-28.2z"/></symbol><symbol viewBox="0 0 1000 1000" xml:space="preserve" id="zurb" xmlns="http://www.w3.org/2000/svg"><path d="M894.7 10H105.3C52.7 10 10 52.7 10 105.3v789.4c0 52.6 42.7 95.3 95.3 95.3h789.4c52.6 0 95.3-42.7 95.3-95.3V105.3c0-52.6-42.7-95.3-95.3-95.3zM777 598.4v72.7c-1.4 14.4-12.6 25.7-26.9 27.5H339.8c-30.4 0-56.3-9.8-77.7-29.4-21.4-19.6-32.1-43.2-32.1-71.1 0-22.1 7.2-41.8 21.7-59.1 14.5-17.3 32.8-29.3 55-36.2l358.5-102.5H230.1v-69.4c.2-14.6 10.5-26.6 24.2-29.6h412.9c30.4 0 56.3 9.7 77.7 29.1C766.3 349.8 777 373 777 400c0 22.5-7.3 42.3-21.9 59.5-14.6 17.2-33.3 29.1-56.3 35.9l-359 102.9H777z"/></symbol></svg>